<svg width="236" height="35" viewBox="0 0 236 35" fill="none" xmlns="http://www.w3.org/2000/svg">
<path d="M222.809 34.6528C220.723 34.4585 219.036 33.5832 217.919 31.7576C216.606 29.6113 216.781 26.3715 219.321 24.4511C220.324 23.6933 221.452 23.2133 222.676 22.9695C224.552 22.5961 226.416 22.6619 228.259 23.1831C228.529 23.2594 228.789 23.3713 229.081 23.4764C229.112 22.6528 229.141 21.85 228.783 21.0938C228.496 20.489 228.023 20.0827 227.409 19.8322C226.671 19.5313 225.897 19.4931 225.114 19.5117C223.522 19.5491 222.092 20.1024 220.736 20.8878C220.396 21.0847 220.065 21.2963 219.734 21.4985C219.641 21.4354 219.621 21.3421 219.583 21.2623C219.112 20.2664 218.644 19.2694 218.176 18.272C218.062 18.0297 218.063 18.0282 218.302 17.8774C220.035 16.7821 221.909 16.0564 223.944 15.7903C225.867 15.5386 227.78 15.5878 229.655 16.1381C230.807 16.4759 231.842 17.0304 232.708 17.8759C233.674 18.8192 234.227 19.9803 234.495 21.2884C234.629 21.9441 234.687 22.6075 234.685 23.2776C234.682 24.8453 234.686 26.4134 234.683 27.9815C234.682 28.2355 234.703 28.4869 234.748 28.7359C234.827 29.1672 235.08 29.4404 235.506 29.5481C235.613 29.5754 235.724 29.5916 235.833 29.6128C235.833 31.1911 235.833 32.7694 235.833 34.3481C234.7 34.6059 233.557 34.6996 232.403 34.528C231.822 34.4422 231.292 34.2306 230.861 33.8122C230.4 33.3647 230.158 32.8114 230.061 32.184C230.028 31.9636 230.031 31.7353 229.943 31.484C229.556 31.9636 229.165 32.3851 228.722 32.7547C227.378 33.8738 225.845 34.5314 224.093 34.6569C224.101 34.6754 224.108 34.694 224.116 34.7121C223.671 34.7121 223.226 34.7121 222.78 34.7121C222.79 34.6924 222.799 34.6724 222.809 34.6528H222.809ZM59.2367 8.86363C59.242 8.98684 59.1811 9.04656 59.1407 9.11384C58.1365 10.7863 57.1311 12.4583 56.1254 14.1296C55.9784 14.3749 55.9768 14.3753 55.7047 14.3005C54.6922 14.0219 53.6797 13.7426 52.6671 13.4641C52.5896 13.4429 52.5095 13.4289 52.4453 13.3779C52.4233 13.2993 52.4725 13.2396 52.497 13.1768C53.0424 11.8067 53.5924 10.4382 54.1355 9.06697C54.1941 8.91957 54.2568 8.84398 54.4371 8.84473C55.9942 8.85343 57.5518 8.85003 59.1097 8.85041C59.1479 8.85041 59.1864 8.85834 59.2367 8.86363ZM83.0578 8.84965C83.8969 8.84965 84.7363 8.8489 85.5757 8.85041C85.8202 8.85078 85.8237 8.8538 85.8237 9.09947C85.8248 10.6264 85.8248 12.1537 85.8237 13.6806C85.8237 13.9153 85.8199 13.9206 85.595 13.9206C83.8863 13.9221 82.1772 13.9221 80.4681 13.9206C80.2387 13.9206 80.2349 13.9153 80.2345 13.6848C80.2334 12.1579 80.2334 10.6309 80.2345 9.10401C80.2345 8.8523 80.2379 8.85041 80.5093 8.85003C81.3589 8.84927 82.2082 8.84965 83.0578 8.84965ZM80.2338 25.1496C80.2338 22.2167 80.2334 19.2837 80.2345 16.3508C80.2345 15.9729 80.1903 16.0092 80.572 16.0088C82.2104 16.0077 83.8489 16.0084 85.4873 16.0084C85.558 16.0084 85.6286 16.0107 85.6997 16.0092C85.7893 16.0073 85.8256 16.0523 85.8237 16.1384C85.8222 16.2193 85.8244 16.3006 85.8244 16.3815C85.8244 22.2469 85.8244 28.1127 85.824 33.9785C85.8237 34.3859 85.8626 34.3372 85.4718 34.3375C83.8436 34.3391 82.2153 34.3383 80.5871 34.3383C80.5667 34.3383 80.5463 34.3383 80.5263 34.3383C80.2175 34.3391 80.2338 34.3576 80.2338 34.039C80.2341 31.4904 80.2338 28.9419 80.2338 26.3934C80.2338 25.9788 80.2338 25.5642 80.2338 25.1496ZM51.607 25.1828C51.607 22.2594 51.607 19.3363 51.607 16.4128C51.607 16.3319 51.6115 16.2507 51.6066 16.1702C51.599 16.0545 51.6463 16.0005 51.7642 16.008C51.8243 16.0118 51.8855 16.0084 51.946 16.0084C53.5848 16.0084 55.2236 16.0084 56.862 16.0084C56.9229 16.0084 56.9837 16.0118 57.0442 16.008C57.1576 16.0009 57.2157 16.0443 57.2078 16.1645C57.2033 16.2352 57.2074 16.3062 57.2074 16.3769C57.2074 22.2439 57.2078 28.1108 57.2071 33.9777C57.2071 34.3837 57.2433 34.3375 56.8533 34.3375C55.2247 34.3391 53.5961 34.3383 51.9675 34.3383C51.8969 34.3383 51.8258 34.3349 51.7551 34.3383C51.6527 34.3436 51.6074 34.2952 51.6081 34.1954C51.6089 34.1146 51.607 34.0337 51.607 33.9528C51.607 31.0293 51.607 28.1063 51.607 25.1828ZM50.1571 29.4521C50.2444 29.942 50.3333 30.4363 50.4206 30.9303C50.5574 31.7066 50.6931 32.4833 50.8291 33.2596C50.836 33.2993 50.8374 33.3405 50.8488 33.3791C50.8964 33.5439 50.8409 33.6315 50.6768 33.7003C50.0502 33.963 49.4058 34.1644 48.7436 34.3126C47.6933 34.5477 46.6331 34.686 45.5548 34.6452C45.0174 34.6244 44.486 34.5526 43.9712 34.3942C42.3884 33.9074 41.4318 32.8435 41.0753 31.2315C40.9767 30.7852 40.937 30.3331 40.937 29.8766C40.9374 22.976 40.937 16.0753 40.937 9.17468C40.937 9.15465 40.937 9.13425 40.937 9.11422C40.9408 8.85267 40.9408 8.85041 41.2031 8.85003C42.8729 8.84927 44.5423 8.84965 46.2117 8.85003C46.5674 8.85003 46.5296 8.82281 46.53 9.18375C46.5303 15.2344 46.5303 21.285 46.5303 27.336C46.5303 27.5382 46.5277 27.7408 46.5311 27.943C46.5337 28.1248 46.5451 28.3051 46.5817 28.4854C46.7749 29.4367 47.3308 29.9038 48.2991 29.8955C48.8611 29.8909 49.4012 29.7662 49.9141 29.5311C49.9852 29.4986 50.0464 29.4351 50.1571 29.4521ZM185.245 29.4287C185.35 29.7277 185.372 30.0316 185.426 30.3275C185.613 31.351 185.782 32.3779 185.969 33.4014C186 33.5684 185.946 33.6312 185.802 33.6931C184.934 34.0688 184.027 34.3047 183.098 34.4645C182.299 34.6021 181.495 34.68 180.683 34.6456C180.014 34.6172 179.354 34.519 178.727 34.2725C177.273 33.7022 176.455 32.6107 176.161 31.1019C176.072 30.6446 176.038 30.1812 176.038 29.7145C176.039 22.8871 176.039 16.0598 176.039 9.23251C176.039 9.18224 176.038 9.1316 176.039 9.08095C176.044 8.85494 176.044 8.85078 176.277 8.85041C177.987 8.84927 179.696 8.84927 181.405 8.85041C181.622 8.85078 181.623 8.85532 181.629 9.06319C181.631 9.14407 181.629 9.22495 181.629 9.30583C181.629 15.415 181.629 21.5242 181.628 27.6331C181.628 27.8663 181.641 28.0972 181.669 28.3289C181.814 29.4949 182.537 29.9594 183.615 29.8883C183.897 29.8694 184.175 29.8165 184.45 29.7428C184.724 29.6691 184.977 29.5466 185.245 29.4287ZM96.4709 34.652C92.9352 34.4713 88.87 32.238 87.7641 27.5023C87.2818 25.4364 87.408 23.4015 88.1987 21.4286C89.2358 18.8423 91.1052 17.0935 93.7338 16.2174C96.186 15.4003 98.6774 15.4154 101.122 16.2632C103.17 16.9733 104.714 18.3287 105.779 20.2218C105.818 20.2921 105.854 20.3647 105.889 20.4376C105.896 20.4531 105.89 20.4751 105.89 20.4977C105.831 20.5763 105.73 20.5718 105.646 20.5975C104.012 21.093 102.378 21.5855 100.743 22.0783C100.486 22.1554 100.485 22.1554 100.332 21.9392C99.5455 20.825 98.4503 20.3685 97.1123 20.4146C95.1557 20.4822 93.8464 21.9491 93.4556 23.4144C93.0788 24.8264 93.1121 26.2229 93.7221 27.5662C94.2724 28.7786 95.195 29.5776 96.5106 29.8789C98.0678 30.2353 99.7137 29.5081 100.418 28.3039C100.514 28.1399 100.612 28.1781 100.741 28.2178C102.285 28.6947 103.83 29.1698 105.375 29.6457C105.558 29.702 105.74 29.7594 105.92 29.8154C105.935 29.9628 105.85 30.0595 105.794 30.1627C104.966 31.7006 103.73 32.8182 102.198 33.6232C101.156 34.1709 100.038 34.4679 98.8717 34.5968C98.6608 34.6203 98.4487 34.6339 98.2374 34.652C98.2303 34.6796 98.2394 34.6996 98.2647 34.7121C97.6577 34.7121 97.0507 34.7121 96.4433 34.7121C96.4686 34.6996 96.4785 34.6796 96.4709 34.652ZM64.991 18.9364C65.073 18.9504 65.0862 18.9035 65.1059 18.8744C66.0504 17.4696 67.3815 16.5976 68.9727 16.1018C70.3416 15.6751 71.748 15.5439 73.1706 15.7219C74.97 15.9476 76.2135 16.9352 76.9498 18.5792C77.2544 19.2596 77.4089 19.978 77.5 20.7139C77.5998 21.5186 77.6259 22.3259 77.6252 23.1358C77.6214 26.7475 77.624 30.3592 77.6229 33.9713C77.6229 34.3893 77.6682 34.3372 77.2472 34.3375C75.6284 34.3394 74.0097 34.3383 72.3909 34.3383C72.3202 34.3383 72.2492 34.3349 72.1785 34.3383C72.0761 34.3436 72.03 34.2982 72.0334 34.1958C72.036 34.1149 72.033 34.0341 72.033 33.9532C72.033 30.6752 72.033 27.3972 72.0334 24.1196C72.0334 23.5614 71.9921 23.0081 71.8549 22.4653C71.7703 22.1297 71.6456 21.8092 71.44 21.528C70.9161 20.8103 70.1935 20.5223 69.325 20.5945C68.5211 20.661 67.8369 21.025 67.2152 21.5152C66.519 22.064 65.9911 22.7435 65.646 23.564C65.5738 23.7353 65.5398 23.9057 65.5402 24.092C65.5432 27.3798 65.5428 30.668 65.5413 33.9562C65.5413 34.3969 65.5953 34.3368 65.1505 34.3372C63.5419 34.3398 61.9334 34.3383 60.3248 34.3383C60.2541 34.3383 60.1831 34.3341 60.1124 34.3387C59.9967 34.3466 59.9442 34.2979 59.9514 34.1807C59.9556 34.11 59.9518 34.039 59.9518 33.9683C59.9518 28.1104 59.9518 22.2529 59.9518 16.3951C59.9518 16.3648 59.9518 16.3342 59.9518 16.304C59.9537 15.9839 59.9242 16.0088 60.245 16.0084C61.7323 16.008 63.2195 16.0084 64.7068 16.0084C64.757 16.0084 64.8077 16.0103 64.8583 16.0092C64.9438 16.0069 64.9917 16.0421 64.9902 16.1328C64.9891 16.2038 64.991 16.2745 64.991 16.3452C64.991 17.1343 64.991 17.9235 64.991 18.7127C64.991 18.7894 64.991 18.8661 64.991 18.9364ZM111.894 34.6509C109.209 34.4366 107.118 32.8023 106.446 30.4023C105.843 28.2525 106.458 26.0196 108.333 24.5305C109.35 23.7217 110.516 23.2239 111.782 22.971C113.646 22.5984 115.501 22.6592 117.335 23.1748C117.615 23.2534 117.885 23.3656 118.159 23.4624C118.233 23.3925 118.203 23.3074 118.204 23.2318C118.209 22.8168 118.223 22.4 118.158 21.9895C117.957 20.7264 117.221 19.9489 115.969 19.6553C115.16 19.4652 114.343 19.472 113.526 19.5642C111.982 19.7384 110.623 20.393 109.325 21.2011C109.196 21.2812 109.068 21.3636 108.943 21.4487C108.856 21.5072 108.796 21.5004 108.756 21.3969C108.734 21.3402 108.705 21.2869 108.679 21.2321C108.223 20.2626 107.764 19.2947 107.312 18.3238C107.158 17.9912 107.108 18.0675 107.462 17.8464C109.28 16.7126 111.243 15.9842 113.383 15.7522C115.035 15.573 116.674 15.6214 118.295 16.0088C118.946 16.1645 119.572 16.3898 120.168 16.697C122.011 17.648 123.134 19.1484 123.58 21.1667C123.744 21.9113 123.801 22.6668 123.804 23.4261C123.81 24.9636 123.805 26.5015 123.807 28.039C123.807 28.2714 123.815 28.5024 123.859 28.7333C123.946 29.1959 124.22 29.4597 124.673 29.5614C124.983 29.6313 124.982 29.6373 124.982 29.9416C124.982 31.2969 124.982 32.6526 124.982 34.0084C124.982 34.0586 124.976 34.1104 124.983 34.1599C125.005 34.3032 124.931 34.3527 124.803 34.3803C124.427 34.4611 124.049 34.5337 123.666 34.562C122.869 34.6206 122.071 34.6671 121.281 34.4815C120.048 34.1909 119.288 33.3273 119.153 32.0679C119.134 31.8884 119.108 31.7093 119.082 31.5097C118.959 31.5615 118.908 31.6647 118.84 31.7448C117.632 33.1602 116.129 34.0919 114.311 34.5031C113.976 34.5787 113.637 34.638 113.292 34.652C113.286 34.6796 113.295 34.6996 113.321 34.7121C112.835 34.7121 112.349 34.7121 111.864 34.7121C111.891 34.7004 111.901 34.68 111.894 34.6509ZM118.21 27.4244C118.21 27.1716 118.203 26.9187 118.212 26.6663C118.217 26.5166 118.181 26.4297 118.022 26.3779C116.779 25.975 115.516 25.7376 114.205 25.9138C113.416 26.0196 112.698 26.3015 112.126 26.8768C111.254 27.7533 111.309 29.1649 112.238 29.9805C112.679 30.3675 113.198 30.5875 113.774 30.6348C115.272 30.7576 116.588 30.3282 117.679 29.2719C118.038 28.9245 118.239 28.5118 118.211 28.0004C118.201 27.8092 118.21 27.6164 118.21 27.4244ZM161.249 34.6516C159.043 34.4759 156.814 33.2914 155.91 30.75C155.121 28.5326 155.677 25.9731 157.926 24.3468C159.004 23.5675 160.216 23.1045 161.52 22.8947C163.196 22.6245 164.865 22.6917 166.513 23.1192C166.855 23.2076 167.18 23.3429 167.541 23.4817C167.561 22.6607 167.61 21.867 167.257 21.1164C166.873 20.3004 166.193 19.8699 165.349 19.6617C164.533 19.4602 163.704 19.4708 162.877 19.5646C161.333 19.7396 159.974 20.3953 158.676 21.2026C158.547 21.2827 158.419 21.3647 158.294 21.4502C158.204 21.511 158.15 21.4914 158.108 21.3931C158.052 21.2631 157.988 21.1368 157.928 21.0087C157.498 20.0941 157.067 19.1798 156.638 18.2652C156.528 18.0305 156.528 18.0278 156.742 17.8925C158.43 16.8278 160.248 16.1082 162.231 15.8187C163.865 15.5794 165.496 15.5851 167.12 15.8931C168.587 16.1713 169.928 16.7273 171.041 17.7504C172.052 18.6783 172.641 19.8435 172.935 21.1705C173.088 21.8644 173.149 22.5689 173.151 23.2783C173.155 24.8257 173.152 26.3737 173.153 27.9214C173.153 28.1841 173.161 28.4468 173.206 28.7072C173.287 29.1789 173.562 29.4593 174.03 29.5629C174.34 29.6313 174.339 29.6381 174.339 29.9423C174.339 31.2981 174.339 32.6534 174.339 34.0091C174.339 34.0598 174.333 34.1112 174.34 34.1607C174.363 34.3054 174.285 34.3512 174.158 34.3799C173.753 34.4717 173.344 34.5447 172.931 34.5715C172.154 34.6214 171.376 34.6611 170.607 34.4766C169.412 34.1909 168.649 33.3269 168.511 32.0997C168.49 31.91 168.464 31.7206 168.438 31.5127C168.312 31.56 168.262 31.6643 168.194 31.7444C166.993 33.15 165.503 34.0824 163.695 34.4944C163.35 34.573 163.002 34.635 162.647 34.6509C162.64 34.68 162.651 34.7004 162.678 34.7121C162.192 34.7121 161.706 34.7121 161.221 34.7121C161.246 34.6996 161.256 34.6796 161.249 34.6516ZM167.552 27.4441C167.552 27.1814 167.544 26.9184 167.554 26.6561C167.561 26.5011 167.511 26.4217 167.357 26.3722C166.114 25.9708 164.851 25.7365 163.541 25.9157C162.796 26.0177 162.112 26.2804 161.555 26.8042C160.903 27.4165 160.713 28.1686 160.965 29.0167C161.202 29.8112 161.794 30.2587 162.549 30.5153C163.027 30.6778 163.524 30.6843 164.019 30.6416C165.232 30.5369 166.278 30.0625 167.123 29.1751C167.412 28.8712 167.579 28.5141 167.554 28.0806C167.542 27.8689 167.552 27.6561 167.552 27.4441ZM150.745 17.8823C150.702 17.7995 150.668 17.7379 150.637 17.6748C149.846 16.0519 148.523 15.0998 146.799 14.6958C145.62 14.4195 144.425 14.404 143.259 14.768C141.602 15.2858 140.405 16.3663 139.597 17.8914C139.089 18.8525 138.825 19.8885 138.718 20.9615C138.552 22.6143 138.78 24.2111 139.507 25.7165C140.173 27.0971 141.16 28.1777 142.55 28.8595C143.626 29.3868 144.766 29.5255 145.947 29.3936C146.696 29.3097 147.414 29.1135 148.093 28.7824C149.251 28.2174 150.139 27.384 150.663 26.1904C150.683 26.1443 150.708 26.1009 150.73 26.057C150.827 26.0438 150.886 26.1065 150.951 26.1451C152.363 26.9758 153.773 27.8081 155.185 28.6388C155.476 28.8104 155.425 28.7877 155.302 29.0564C154.712 30.3524 153.775 31.357 152.636 32.1828C151.213 33.2131 149.616 33.8443 147.912 34.2276C146.68 34.5042 145.433 34.5998 144.175 34.5182C142.085 34.3825 140.188 33.6875 138.474 32.4958C135.778 30.6208 134.062 28.0545 133.238 24.8959C132.125 20.633 133.308 16.1596 136.403 13.02C138.258 11.1389 140.503 9.95553 143.137 9.56549C145.227 9.25632 147.297 9.34703 149.311 10.0145C151.633 10.784 153.505 12.1662 154.822 14.2544C154.914 14.3995 154.993 14.5526 155.08 14.7007C155.13 14.7865 155.115 14.8519 155.03 14.9033C154.995 14.9241 154.964 14.9509 154.931 14.974C153.596 15.906 152.261 16.838 150.926 17.7693C150.877 17.8037 150.824 17.8332 150.745 17.8823ZM191.758 18.936C192.099 18.5377 192.401 18.1348 192.759 17.7761C193.715 16.8172 194.871 16.2216 196.177 15.9162C197.379 15.6354 198.598 15.5401 199.82 15.7654C201.676 16.1078 202.96 17.1294 203.526 18.9723C203.54 19.0192 203.537 19.0732 203.589 19.1125C203.676 19.1193 203.691 19.0351 203.726 18.9829C204.891 17.2462 206.508 16.194 208.557 15.8081C209.701 15.5927 210.851 15.5624 211.987 15.8569C213.172 16.1641 214.057 16.8872 214.689 17.9224C215.176 18.7198 215.43 19.599 215.555 20.5208C215.665 21.3349 215.697 22.1516 215.696 22.9722C215.693 26.6345 215.695 30.2972 215.695 33.9596C215.694 34.3954 215.731 34.3372 215.329 34.3375C213.71 34.3394 212.091 34.3383 210.472 34.3383C210.401 34.3383 210.33 34.3345 210.26 34.3387C210.142 34.3455 210.095 34.2918 210.101 34.1769C210.106 34.0964 210.102 34.0152 210.102 33.9343C210.102 30.6155 210.101 27.2971 210.103 23.9787C210.103 23.4197 210.057 22.8671 209.902 22.3281C209.778 21.8939 209.576 21.5023 209.244 21.1856C208.64 20.6104 207.924 20.4739 207.135 20.6572C206.393 20.8299 205.784 21.234 205.263 21.7801C204.769 22.2983 204.388 22.8898 204.111 23.5501C204.035 23.7315 204.009 23.9144 204.009 24.1098C204.012 27.398 204.011 30.6862 204.011 33.9743C204.011 34.3791 204.054 34.3375 203.661 34.3379C202.032 34.3387 200.403 34.3383 198.774 34.3383C198.754 34.3383 198.734 34.3383 198.714 34.3383C198.42 34.3364 198.418 34.3364 198.418 34.0409C198.418 30.6918 198.42 27.3428 198.416 23.9942C198.415 23.4064 198.368 22.821 198.187 22.2563C197.934 21.466 197.452 20.8893 196.628 20.6584C196.081 20.5053 195.541 20.5745 195.022 20.7797C194.085 21.1504 193.387 21.8058 192.857 22.6517C192.782 22.7715 192.716 22.8973 192.65 23.0224C192.416 23.4658 192.297 23.9239 192.3 24.4409C192.318 27.618 192.31 30.7946 192.308 33.9717C192.308 34.3927 192.352 34.3368 191.933 34.3375C190.314 34.3394 188.695 34.3383 187.076 34.3383C186.995 34.3383 186.914 34.3375 186.833 34.3368C186.76 34.3364 186.722 34.2979 186.72 34.2253C186.719 34.1444 186.719 34.0635 186.719 33.9827C186.718 28.1044 186.719 22.2261 186.719 16.3478C186.719 15.9718 186.676 16.0092 187.06 16.0088C188.517 16.0077 189.974 16.0084 191.431 16.0084C191.481 16.0084 191.532 16.0126 191.583 16.0077C191.711 15.9959 191.762 16.0474 191.76 16.1808C191.753 16.5345 191.758 16.8887 191.758 17.2428C191.758 17.8075 191.758 18.3717 191.758 18.936ZM229.094 27.4464C229.094 27.1837 229.086 26.9206 229.097 26.6583C229.103 26.5034 229.055 26.4259 228.9 26.3752C227.657 25.9705 226.394 25.7384 225.084 25.9145C224.359 26.012 223.702 26.2766 223.136 26.7558C222.144 27.596 222.153 29.2057 223.181 30.0285C223.46 30.2519 223.767 30.4223 224.111 30.5229C224.735 30.7058 225.369 30.6922 226.002 30.5841C227.029 30.4087 227.912 29.9514 228.637 29.1985C228.944 28.8792 229.121 28.508 229.096 28.0526C229.085 27.8511 229.094 27.6486 229.094 27.4464Z" fill="#2B647F"/>
<path d="M7.56429 0.350586C7.7253 0.453389 7.91463 0.428446 8.08962 0.457171C10.8982 0.922807 13.1727 3.18862 13.6255 5.98433C14.1962 9.50646 12.0093 12.8445 8.56546 13.6802C4.71451 14.6148 1.02685 12.0909 0.325749 8.39604C0.277749 8.14206 0.306872 7.86804 0.157959 7.6356C0.157959 7.31207 0.157959 6.98817 0.157959 6.66426C0.248289 6.46848 0.256953 6.2557 0.288323 6.04707C0.689707 3.35983 2.83987 1.08457 5.4946 0.522934C5.79923 0.458304 6.11332 0.448853 6.41076 0.350586C6.79552 0.350586 7.17991 0.350586 7.56429 0.350586ZM4.44505 14.6262C4.69525 14.6931 4.93564 14.7672 5.18017 14.8205C7.8572 15.4029 10.2379 14.8042 12.28 12.976C13.7158 11.691 14.5383 10.0579 14.7703 8.14999C14.9929 6.32109 14.5995 4.61312 13.6247 3.04387C13.5983 3.00116 13.5699 2.95921 13.5427 2.9165C13.398 2.6886 13.3961 2.68482 13.6338 2.56803C15.1037 1.84539 16.6457 1.34536 18.2618 1.07361C19.3522 0.890305 20.449 0.806394 21.5541 0.840409C25.0162 0.946236 28.1687 1.99014 30.9799 4.01482C33.8175 6.05916 35.8267 8.74073 37.0373 12.0232C37.3226 12.7961 37.3287 13.552 36.9277 14.2781C36.4436 15.1546 35.6846 15.624 34.6823 15.6406C33.4989 15.6599 32.3148 15.6553 31.1314 15.6417C30.1295 15.6304 29.3713 15.1738 28.8641 14.311C28.6747 13.9886 28.5289 13.6424 28.3278 13.3257C26.9759 11.1959 25.0612 9.88441 22.5848 9.41537C21.7794 9.26306 20.9627 9.20296 20.1455 9.39269C18.4289 9.79181 17.117 11.276 16.9001 12.9919C16.6332 15.1035 18.04 17.287 20.4146 17.7042C20.4691 17.7137 20.5238 17.7242 20.5821 17.7352C20.5454 17.8225 20.4781 17.8153 20.4207 17.8252C18.6171 18.1411 17.2689 19.4549 16.9363 21.2577C16.5247 23.4884 17.9855 25.6911 20.2619 26.1484C21.0972 26.3162 21.9381 26.2493 22.7621 26.0709C25.4954 25.4787 27.4921 23.9223 28.7477 21.424C29.1339 20.6553 29.7183 20.1462 30.5596 19.9383C30.7391 19.8941 30.9202 19.8854 31.1016 19.885C32.2951 19.8827 33.4891 19.8907 34.6827 19.882C36.075 19.8721 37.2935 21.0653 37.2467 22.5492C37.238 22.8247 37.1756 23.0885 37.0853 23.3478C36.3687 25.4076 35.2904 27.2596 33.8527 28.8961C31.7826 31.2523 29.253 32.9171 26.2668 33.8854C24.1613 34.5684 21.9979 34.8099 19.8005 34.6338C16.0293 34.3314 12.7207 32.9047 9.88415 30.3985C8.12441 28.844 6.77513 26.9841 5.74673 24.8743C5.17186 23.6944 4.7183 22.4815 4.44996 21.198C4.14419 19.735 4.03422 18.2594 4.14571 16.7665C4.19598 16.09 4.27913 15.4195 4.40725 14.7539C4.41481 14.7158 4.42917 14.6787 4.44505 14.6262ZM6.78986 12.8657C7.71886 12.8706 8.39312 12.5932 8.96345 12.061C9.17094 11.8675 9.3516 11.6472 9.47708 11.3909C9.61692 11.1059 9.51978 10.7873 9.25824 10.6248C9.00048 10.4646 8.6713 10.5273 8.47326 10.7779C8.41732 10.8489 8.3731 10.9294 8.31905 11.002C7.66633 11.8804 6.32157 11.9042 5.6405 11.0493C5.57172 10.9627 5.51692 10.8648 5.44813 10.7779C5.24933 10.5266 4.91936 10.4642 4.66311 10.6252C4.40648 10.7862 4.3139 11.1101 4.44656 11.3966C4.47604 11.4605 4.51423 11.5209 4.55467 11.5788C5.13369 12.4023 5.92586 12.8336 6.78986 12.8657Z" fill="#26C4C3"/>
</svg>
